<?xml version="1.0" encoding="UTF-8" standalone="no"?>
<!-- Created with Inkscape (http://www.inkscape.org/) -->

<svg
   xmlns:dc="http://purl.org/dc/elements/1.1/"
   xmlns:cc="http://creativecommons.org/ns#"
   xmlns:rdf="http://www.w3.org/1999/02/22-rdf-syntax-ns#"
   xmlns:svg="http://www.w3.org/2000/svg"
   xmlns="http://www.w3.org/2000/svg"
   xmlns:sodipodi="http://sodipodi.sourceforge.net/DTD/sodipodi-0.dtd"
   xmlns:inkscape="http://www.inkscape.org/namespaces/inkscape"
   width="1920px"
   height="1920px"
   viewBox="0 0 1920 1920"
   version="1.1"
   id="SVGRoot"
   inkscape:version="0.92.4 (5da689c313, 2019-01-14)"
   sodipodi:docname="standUp0.svg">
  <defs
     id="defs2031" />
  <sodipodi:namedview
     id="base"
     pagecolor="#ffffff"
     bordercolor="#666666"
     borderopacity="1.0"
     inkscape:pageopacity="0.0"
     inkscape:pageshadow="2"
     inkscape:zoom="0.5"
     inkscape:cx="1253.7398"
     inkscape:cy="858.26248"
     inkscape:document-units="px"
     inkscape:current-layer="layer1"
     showgrid="false"
     inkscape:window-width="1920"
     inkscape:window-height="1017"
     inkscape:window-x="-8"
     inkscape:window-y="-8"
     inkscape:window-maximized="1" />
  <metadata
     id="metadata2034">
    <rdf:RDF>
      <cc:Work
         rdf:about="">
        <dc:format>image/svg+xml</dc:format>
        <dc:type
           rdf:resource="http://purl.org/dc/dcmitype/StillImage" />
        <dc:title />
      </cc:Work>
    </rdf:RDF>
  </metadata>
  <g
     inkscape:label="Layer 1"
     inkscape:groupmode="layer"
     id="layer1">
    <path
       style="opacity:1;fill:#000000;fill-opacity:1;fill-rule:nonzero;stroke:none;stroke-width:1.00157475;stroke-miterlimit:4;stroke-dasharray:none;stroke-dashoffset:0;stroke-opacity:1"
       id="path2604"
       sodipodi:type="arc"
       sodipodi:cx="-1435.1376"
       sodipodi:cy="-1405.1102"
       sodipodi:rx="72.85714"
       sodipodi:ry="87.14286"
       sodipodi:start="4.1719652"
       sodipodi:end="4.1702897"
       sodipodi:open="true"
       d="m -1472.6225,-1479.8344 a 72.85714,87.14286 0 0 1 99.9435,29.8579 72.85714,87.14286 0 0 1 -24.9213,119.5529 72.85714,87.14286 0 0 1 -99.9644,-29.7578 72.85714,87.14286 0 0 1 24.8375,-119.5778"
       transform="rotate(-179.19136)" />
    <path
       style="opacity:1;fill:#000000;fill-opacity:1;fill-rule:nonzero;stroke:none;stroke-width:1.00157475;stroke-miterlimit:4;stroke-dasharray:none;stroke-dashoffset:0;stroke-opacity:1"
       id="path2604-9"
       sodipodi:type="arc"
       sodipodi:cx="-523.97119"
       sodipodi:cy="-1421.6421"
       sodipodi:rx="72.85714"
       sodipodi:ry="87.14286"
       sodipodi:start="4.1719652"
       sodipodi:end="4.1702897"
       sodipodi:open="true"
       d="m -561.45615,-1496.3663 a 72.85714,87.14286 0 0 1 99.94357,29.858 72.85714,87.14286 0 0 1 -24.92133,119.5528 72.85714,87.14286 0 0 1 -99.96445,-29.7578 72.85714,87.14286 0 0 1 24.83759,-119.5778"
       transform="rotate(-179.19136)" />
    <path
       style="opacity:1;vector-effect:none;fill:#ff7474;fill-opacity:1;fill-rule:nonzero;stroke:none;stroke-width:0.58021212;stroke-linecap:butt;stroke-linejoin:miter;stroke-miterlimit:4;stroke-dasharray:none;stroke-dashoffset:0;stroke-opacity:1"
       id="path2625"
       sodipodi:type="arc"
       sodipodi:cx="-1459.6381"
       sodipodi:cy="-1477.1281"
       sodipodi:rx="49.10714"
       sodipodi:ry="32.142857"
       sodipodi:start="4.1719652"
       sodipodi:end="4.1702897"
       sodipodi:open="true"
       d="m -1484.9037,-1504.6903 a 49.10714,32.142857 0 0 1 67.364,11.0132 49.10714,32.142857 0 0 1 -16.7975,44.0974 49.10714,32.142857 0 0 1 -67.378,-10.9762 49.10714,32.142857 0 0 1 16.741,-44.1066"
       transform="rotate(-179.19136)" />
    <path
       style="opacity:1;vector-effect:none;fill:#ff7474;fill-opacity:1;fill-rule:nonzero;stroke:none;stroke-width:0.58021212;stroke-linecap:butt;stroke-linejoin:miter;stroke-miterlimit:4;stroke-dasharray:none;stroke-dashoffset:0;stroke-opacity:1"
       id="path2625-8"
       sodipodi:type="arc"
       sodipodi:cx="-511.22556"
       sodipodi:cy="-1508.785"
       sodipodi:rx="49.10714"
       sodipodi:ry="32.142857"
       sodipodi:start="4.1719652"
       sodipodi:end="4.1702897"
       sodipodi:open="true"
       d="m -536.49115,-1536.3472 a 49.10714,32.142857 0 0 1 67.36392,11.0131 49.10714,32.142857 0 0 1 -16.79746,44.0974 49.10714,32.142857 0 0 1 -67.378,-10.9762 49.10714,32.142857 0 0 1 16.74102,-44.1066"
       transform="rotate(-179.19136)" />
    <path
       style="opacity:1;vector-effect:none;fill:#784421;fill-opacity:1;fill-rule:nonzero;stroke:none;stroke-width:0.82869297;stroke-linecap:butt;stroke-linejoin:miter;stroke-miterlimit:4;stroke-dasharray:none;stroke-dashoffset:0;stroke-opacity:1"
       id="path2664"
       sodipodi:type="arc"
       sodipodi:cx="-658.84198"
       sodipodi:cy="-2051.9158"
       sodipodi:rx="95.964493"
       sodipodi:ry="119.198"
       sodipodi:start="4.1719652"
       sodipodi:end="4.1702897"
       sodipodi:open="true"
       d="m -708.21566,-2154.1269 a 95.964493,119.198 0 0 1 131.64165,40.841 95.964493,119.198 0 0 1 -32.82537,163.5299 95.964493,119.198 0 0 1 -131.66915,-40.7041 95.964493,119.198 0 0 1 32.71507,-163.564"
       transform="rotate(163.49333)" />
    <path
       style="opacity:1;vector-effect:none;fill:#784421;fill-opacity:1;fill-rule:nonzero;stroke:none;stroke-width:0.82869297;stroke-linecap:butt;stroke-linejoin:miter;stroke-miterlimit:4;stroke-dasharray:none;stroke-dashoffset:0;stroke-opacity:1"
       id="path2664-0"
       sodipodi:type="arc"
       sodipodi:cx="-1354.8906"
       sodipodi:cy="-1331.3119"
       sodipodi:rx="95.964493"
       sodipodi:ry="119.198"
       sodipodi:start="4.1719652"
       sodipodi:end="4.1702897"
       sodipodi:open="true"
       d="m -1404.2643,-1433.5231 a 95.964493,119.198 0 0 1 131.6416,40.8411 95.964493,119.198 0 0 1 -32.8253,163.5299 95.964493,119.198 0 0 1 -131.6692,-40.7041 95.964493,119.198 0 0 1 32.7151,-163.564"
       transform="rotate(-155.09374)" />
    <path
       style="opacity:1;fill:#000000;fill-opacity:1;fill-rule:nonzero;stroke:none;stroke-width:1.4304651;stroke-miterlimit:4;stroke-dasharray:none;stroke-dashoffset:0;stroke-opacity:1"
       id="path2597"
       sodipodi:type="arc"
       sodipodi:cx="-986.64026"
       sodipodi:cy="-1431.9979"
       sodipodi:rx="442.85718"
       sodipodi:ry="351.42859"
       sodipodi:start="4.1719652"
       sodipodi:end="4.1702897"
       sodipodi:open="true"
       d="m -1214.49,-1733.3447 a 442.85718,351.42859 0 0 1 607.50019,120.4108 442.85718,351.42859 0 0 1 -151.48263,482.1312 442.85718,351.42859 0 0 1 -607.62716,-120.0069 442.85718,351.42859 0 0 1 150.9736,-482.2317"
       transform="rotate(-179.19136)" />
    <path
       style="opacity:1;fill:#ff7474;fill-opacity:1;fill-rule:nonzero;stroke:none;stroke-width:0.76305723;stroke-miterlimit:4;stroke-dasharray:none;stroke-dashoffset:0;stroke-opacity:1"
       d="M 213.35942,760.73616 A 722.65445,755.71881 89.628142 0 1 979.88562,48.140426 722.65445,755.71881 89.628142 0 1 1724.6375,780.71842 722.65445,755.71881 89.628142 0 1 958.11127,1493.314 722.65445,755.71881 89.628142 0 1 213.35942,760.73616 Z"
       id="path2587"
       inkscape:connector-curvature="0" />
    <path
       style="opacity:1;fill:#000000;fill-opacity:1;fill-rule:nonzero;stroke:none;stroke-width:1.01805949;stroke-miterlimit:4;stroke-dasharray:none;stroke-dashoffset:0;stroke-opacity:1"
       id="path2595"
       sodipodi:type="arc"
       sodipodi:cx="-516.28333"
       sodipodi:cy="-1145.1891"
       sodipodi:rx="788.8432"
       sodipodi:ry="771.72565"
       sodipodi:start="6.2695069"
       sodipodi:end="4.1702877"
       sodipodi:open="true"
       d="M 272.48608,-1155.7447 A 788.8432,771.72565 0 0 1 -367.4432,-387.32492 788.8432,771.72565 0 0 1 -1252.8898,-869.03 788.8432,771.72565 0 0 1 -923.27683,-1806.2697"
       transform="matrix(-0.88717589,0.4614314,-0.44655908,-0.89475415,0,0)" />
    <path
       style="fill:#000000;stroke:#000000;stroke-width:1.70745635px;stroke-linecap:butt;stroke-linejoin:miter;stroke-opacity:1"
       d="m 1509.0364,1301.9795 c 13.7228,2.9121 73.1619,-112.9078 63.5451,-110.1976 -256.456,72.2719 -1054.14566,75.8916 -1213.46093,-8.8672 -25.17165,-13.3917 71.69291,136.0753 88.72013,141.1587 125.87461,37.5808 1011.5771,93.3311 1061.1957,-22.0939"
       id="path2708"
       inkscape:connector-curvature="0"
       sodipodi:nodetypes="csssc" />
    <path
       style="opacity:1;vector-effect:none;fill:#180e07;fill-opacity:1;fill-rule:nonzero;stroke:none;stroke-width:0.00307963;stroke-linecap:butt;stroke-linejoin:miter;stroke-miterlimit:4;stroke-dasharray:none;stroke-dashoffset:0;stroke-opacity:1"
       d="m 1502.0654,1360.0141 c -0.024,0.024 -0.1668,0.1673 -0.3169,0.3188 -0.793,0.8001 -1.8922,1.9022 -2.7973,2.8046 -0.7103,0.7082 -1.3272,1.3209 -2.229,2.2139 l -0.1721,0.1704 h -0.1191 -0.1191 l 0.052,-0.051 c 0.028,-0.028 0.122,-0.1204 0.2082,-0.2051 0.3094,-0.3044 1.2165,-1.2009 1.6757,-1.6562 1.1419,-1.1323 2.3584,-2.347 3.4289,-3.4237 l 0.2135,-0.2147 h 0.1098 0.1098 z"
       id="path2739"
       inkscape:connector-curvature="0" />
    <path
       style="opacity:1;vector-effect:none;fill:#180e07;fill-opacity:1;fill-rule:nonzero;stroke:none;stroke-width:0.00307963;stroke-linecap:butt;stroke-linejoin:miter;stroke-miterlimit:4;stroke-dasharray:none;stroke-dashoffset:0;stroke-opacity:1"
       d="m 1502.111,1360.0087 c -0.021,0.021 -0.095,0.095 -0.1645,0.1647 -0.5062,0.5077 -1.2913,1.2916 -1.9213,1.9183 -1.1464,1.1405 -2.7196,2.6961 -2.7231,2.6926 -9e-4,-10e-4 0.086,-0.089 0.1939,-0.1957 1.0657,-1.0539 2.8913,-2.8791 4.3061,-4.305 l 0.3106,-0.313 0.018,3e-4 0.018,2e-4 z"
       id="path2741"
       inkscape:connector-curvature="0" />
    <path
       style="opacity:1;vector-effect:none;fill:#180e07;fill-opacity:1;fill-rule:nonzero;stroke:none;stroke-width:0.01231851;stroke-linecap:butt;stroke-linejoin:miter;stroke-miterlimit:4;stroke-dasharray:none;stroke-dashoffset:0;stroke-opacity:1"
       d="m 872.77252,1446.2909 c -0.14108,9.9955 -0.15888,11.2567 -0.18188,11.2563 -0.021,-3e-4 -0.005,-1.2614 0.13588,-11.257 0.14108,-9.9955 0.15888,-11.2567 0.18188,-11.2563 0.021,3e-4 0.005,1.2614 -0.13588,11.257 z"
       id="path2747"
       inkscape:connector-curvature="0" />
    <path
       style="opacity:1;vector-effect:none;fill:#ff7474;fill-opacity:1;stroke:none;stroke-width:0.7329849;stroke-linecap:butt;stroke-linejoin:miter;stroke-miterlimit:4;stroke-dasharray:none;stroke-dashoffset:0;stroke-opacity:1"
       d="M 334.73902,1164.9935 C 558.26198,906.51172 1463.3551,894.27993 1581.7151,1192.1384 v 0"
       id="path885"
       inkscape:connector-curvature="0"
       sodipodi:nodetypes="ccc" />
  </g>
</svg>
