<?xml version="1.0" encoding="UTF-8" standalone="no"?>
<!-- Created with Inkscape (http://www.inkscape.org/) -->

<svg
   xmlns:dc="http://purl.org/dc/elements/1.1/"
   xmlns:cc="http://creativecommons.org/ns#"
   xmlns:rdf="http://www.w3.org/1999/02/22-rdf-syntax-ns#"
   xmlns:svg="http://www.w3.org/2000/svg"
   xmlns="http://www.w3.org/2000/svg"
   xmlns:sodipodi="http://sodipodi.sourceforge.net/DTD/sodipodi-0.dtd"
   xmlns:inkscape="http://www.inkscape.org/namespaces/inkscape"
   width="1920px"
   height="1920px"
   viewBox="0 0 1920 1920"
   version="1.1"
   id="SVGRoot"
   inkscape:version="0.92.4 (5da689c313, 2019-01-14)"
   sodipodi:docname="right0.svg">
  <defs
     id="defs2031" />
  <sodipodi:namedview
     id="base"
     pagecolor="#ffffff"
     bordercolor="#666666"
     borderopacity="1.0"
     inkscape:pageopacity="0.0"
     inkscape:pageshadow="2"
     inkscape:zoom="0.25"
     inkscape:cx="874.12958"
     inkscape:cy="1207.4067"
     inkscape:document-units="px"
     inkscape:current-layer="layer1"
     showgrid="false"
     inkscape:window-width="1920"
     inkscape:window-height="1017"
     inkscape:window-x="-8"
     inkscape:window-y="-8"
     inkscape:window-maximized="1" />
  <metadata
     id="metadata2034">
    <rdf:RDF>
      <cc:Work
         rdf:about="">
        <dc:format>image/svg+xml</dc:format>
        <dc:type
           rdf:resource="http://purl.org/dc/dcmitype/StillImage" />
        <dc:title></dc:title>
      </cc:Work>
    </rdf:RDF>
  </metadata>
  <g
     inkscape:label="Layer 1"
     inkscape:groupmode="layer"
     id="layer1">
    <path
       style="opacity:1;vector-effect:none;fill:#784421;fill-opacity:1;fill-rule:nonzero;stroke:none;stroke-width:1.10271215;stroke-linecap:butt;stroke-linejoin:miter;stroke-miterlimit:4;stroke-dasharray:none;stroke-dashoffset:0;stroke-opacity:1"
       id="path2664-0"
       sodipodi:type="arc"
       sodipodi:cx="1737.3568"
       sodipodi:cy="-1334.6733"
       sodipodi:rx="97.113731"
       sodipodi:ry="208.56236"
       sodipodi:start="4.1719652"
       sodipodi:end="4.1702897"
       sodipodi:open="true"
       d="m 1687.3919,-1513.5136 a 97.113731,208.56236 0 0 1 133.2181,71.4601 97.113731,208.56236 0 0 1 -33.2185,286.1305 97.113731,208.56236 0 0 1 -133.246,-71.2205 97.113731,208.56236 0 0 1 33.1069,-286.1901"
       transform="matrix(-0.18657187,0.98244132,-0.9981114,-0.06142992,0,0)" />
    <path
       style="opacity:1;fill:#0c0c0c;fill-opacity:1;fill-rule:nonzero;stroke:none;stroke-width:1.53057802;stroke-miterlimit:4;stroke-dasharray:none;stroke-dashoffset:0;stroke-opacity:1"
       id="path2597"
       sodipodi:type="arc"
       sodipodi:cx="-959.76044"
       sodipodi:cy="-1360.0237"
       sodipodi:rx="442.87088"
       sodipodi:ry="402.32779"
       sodipodi:start="4.1719652"
       sodipodi:end="4.1702897"
       sodipodi:open="true"
       d="m -1187.6173,-1705.016 a 442.87088,402.32779 0 0 1 607.51906,137.8504 442.87088,402.32779 0 0 1 -151.48732,551.9607 442.87088,402.32779 0 0 1 -607.64594,-137.388 442.87088,402.32779 0 0 1 150.9783,-552.0758"
       transform="matrix(-0.99986947,-0.0161569,0.01232751,-0.99992401,0,0)" />
    <path
       style="opacity:1;fill:#ff7474;fill-opacity:1;fill-rule:nonzero;stroke:none;stroke-width:0.76305723;stroke-miterlimit:4;stroke-dasharray:none;stroke-dashoffset:0;stroke-opacity:1"
       d="M 213.35942,760.73616 A 722.65445,755.71881 89.628142 0 1 979.88562,48.140426 722.65445,755.71881 89.628142 0 1 1724.6375,780.71842 722.65445,755.71881 89.628142 0 1 958.11127,1493.314 722.65445,755.71881 89.628142 0 1 213.35942,760.73616 Z"
       id="path2587"
       inkscape:connector-curvature="0" />
    <path
       style="opacity:1;fill:#000000;fill-opacity:1;fill-rule:nonzero;stroke:none;stroke-width:1.01805949;stroke-miterlimit:4;stroke-dasharray:none;stroke-dashoffset:0;stroke-opacity:1"
       id="path2595"
       sodipodi:type="arc"
       sodipodi:cx="-516.28333"
       sodipodi:cy="-1145.1891"
       sodipodi:rx="758.74768"
       sodipodi:ry="771.72565"
       sodipodi:start="4.8015149"
       sodipodi:end="2.867987"
       d="m -448.74873,-1913.8517 a 758.74768,771.72565 0 0 1 690.82985,744.1377 758.74768,771.72565 0 0 1 -642.95706,787.27133 758.74768,771.72565 0 0 1 -845.93186,-554.22251"
       transform="matrix(-0.88717589,0.4614314,-0.44655908,-0.89475415,0,0)"
       sodipodi:open="true" />
    <path
       style="fill:#000000;stroke:#000000;stroke-width:1.99422133px;stroke-linecap:butt;stroke-linejoin:miter;stroke-opacity:1"
       d="m 1671.2133,486.95234 c 6.1459,-5.89738 -113.3778,-186.98437 -112.6868,-173.17709 18.4277,368.2032 -192.9698,613.66124 -215.2636,741.57465 -7.7425,44.4235 -72.6841,285.2122 -62.6432,283.7965 84.8094,-11.9574 446.996,-559.38023 404.5936,-837.19406"
       id="path2708"
       inkscape:connector-curvature="0"
       sodipodi:nodetypes="csssc" />
    <path
       style="opacity:1;vector-effect:none;fill:#180e07;fill-opacity:1;fill-rule:nonzero;stroke:none;stroke-width:0.00307963;stroke-linecap:butt;stroke-linejoin:miter;stroke-miterlimit:4;stroke-dasharray:none;stroke-dashoffset:0;stroke-opacity:1"
       d="m 1502.0654,1360.0141 c -0.024,0.024 -0.1668,0.1673 -0.3169,0.3188 -0.793,0.8001 -1.8922,1.9022 -2.7973,2.8046 -0.7103,0.7082 -1.3272,1.3209 -2.229,2.2139 l -0.1721,0.1704 h -0.1191 -0.1191 l 0.052,-0.051 c 0.028,-0.028 0.122,-0.1204 0.2082,-0.2051 0.3094,-0.3044 1.2165,-1.2009 1.6757,-1.6562 1.1419,-1.1323 2.3584,-2.347 3.4289,-3.4237 l 0.2135,-0.2147 h 0.1098 0.1098 z"
       id="path2739"
       inkscape:connector-curvature="0" />
    <path
       style="opacity:1;vector-effect:none;fill:#180e07;fill-opacity:1;fill-rule:nonzero;stroke:none;stroke-width:0.00307963;stroke-linecap:butt;stroke-linejoin:miter;stroke-miterlimit:4;stroke-dasharray:none;stroke-dashoffset:0;stroke-opacity:1"
       d="m 1502.111,1360.0087 c -0.021,0.021 -0.095,0.095 -0.1645,0.1647 -0.5062,0.5077 -1.2913,1.2916 -1.9213,1.9183 -1.1464,1.1405 -2.7196,2.6961 -2.7231,2.6926 -9e-4,-10e-4 0.086,-0.089 0.1939,-0.1957 1.0657,-1.0539 2.8913,-2.8791 4.3061,-4.305 l 0.3106,-0.313 0.018,3e-4 0.018,2e-4 z"
       id="path2741"
       inkscape:connector-curvature="0" />
    <path
       style="opacity:1;vector-effect:none;fill:#180e07;fill-opacity:1;fill-rule:nonzero;stroke:none;stroke-width:0.01231851;stroke-linecap:butt;stroke-linejoin:miter;stroke-miterlimit:4;stroke-dasharray:none;stroke-dashoffset:0;stroke-opacity:1"
       d="m 872.77252,1446.2909 c -0.14108,9.9955 -0.15888,11.2567 -0.18188,11.2563 -0.021,-3e-4 -0.005,-1.2614 0.13588,-11.257 0.14108,-9.9955 0.15888,-11.2567 0.18188,-11.2563 0.021,3e-4 0.005,1.2614 -0.13588,11.257 z"
       id="path2747"
       inkscape:connector-curvature="0" />
    <path
       style="opacity:1;vector-effect:none;fill:#ff7474;fill-opacity:1;fill-rule:nonzero;stroke:none;stroke-width:0.58021212;stroke-linecap:butt;stroke-linejoin:miter;stroke-miterlimit:4;stroke-dasharray:none;stroke-dashoffset:0;stroke-opacity:1"
       id="path2625-8"
       sodipodi:type="arc"
       sodipodi:cx="-932.46741"
       sodipodi:cy="-1699.9131"
       sodipodi:rx="49.10714"
       sodipodi:ry="32.142857"
       sodipodi:start="4.1719652"
       sodipodi:end="4.1702897"
       sodipodi:open="true"
       d="m -957.733,-1727.4753 a 49.10714,32.142857 0 0 1 67.36392,11.0132 49.10714,32.142857 0 0 1 -16.79746,44.0974 49.10714,32.142857 0 0 1 -67.378,-10.9763 49.10714,32.142857 0 0 1 16.74102,-44.1065"
       transform="rotate(-179.19136)" />
    <path
       style="opacity:1;fill:#000000;fill-opacity:1;fill-rule:nonzero;stroke:none;stroke-width:1.00157475;stroke-miterlimit:4;stroke-dasharray:none;stroke-dashoffset:0;stroke-opacity:1"
       id="path2604-9"
       sodipodi:type="arc"
       sodipodi:cx="-932.2713"
       sodipodi:cy="-1610.2244"
       sodipodi:rx="72.85714"
       sodipodi:ry="87.14286"
       sodipodi:start="4.1719652"
       sodipodi:end="4.1702897"
       sodipodi:open="true"
       d="m -969.75626,-1684.9486 a 72.85714,87.14286 0 0 1 99.94357,29.858 72.85714,87.14286 0 0 1 -24.92133,119.5528 72.85714,87.14286 0 0 1 -99.96445,-29.7577 72.85714,87.14286 0 0 1 24.83759,-119.5778"
       transform="rotate(-179.19136)" />
  </g>
</svg>
