<?xml version="1.0" encoding="UTF-8" standalone="no"?>
<!-- Created with Inkscape (http://www.inkscape.org/) -->

<svg
   xmlns:dc="http://purl.org/dc/elements/1.1/"
   xmlns:cc="http://creativecommons.org/ns#"
   xmlns:rdf="http://www.w3.org/1999/02/22-rdf-syntax-ns#"
   xmlns:svg="http://www.w3.org/2000/svg"
   xmlns="http://www.w3.org/2000/svg"
   xmlns:sodipodi="http://sodipodi.sourceforge.net/DTD/sodipodi-0.dtd"
   xmlns:inkscape="http://www.inkscape.org/namespaces/inkscape"
   width="1920px"
   height="1920px"
   viewBox="0 0 1920 1920"
   version="1.1"
   id="SVGRoot"
   inkscape:version="0.92.4 (5da689c313, 2019-01-14)"
   sodipodi:docname="up0.svg">
  <defs
     id="defs2031" />
  <sodipodi:namedview
     id="base"
     pagecolor="#ffffff"
     bordercolor="#666666"
     borderopacity="1.0"
     inkscape:pageopacity="0.0"
     inkscape:pageshadow="2"
     inkscape:zoom="0.35355339"
     inkscape:cx="1161.0148"
     inkscape:cy="1065.7732"
     inkscape:document-units="px"
     inkscape:current-layer="layer1"
     showgrid="false"
     inkscape:window-width="1680"
     inkscape:window-height="987"
     inkscape:window-x="-8"
     inkscape:window-y="-8"
     inkscape:window-maximized="1" />
  <metadata
     id="metadata2034">
    <rdf:RDF>
      <cc:Work
         rdf:about="">
        <dc:format>image/svg+xml</dc:format>
        <dc:type
           rdf:resource="http://purl.org/dc/dcmitype/StillImage" />
        <dc:title />
      </cc:Work>
    </rdf:RDF>
  </metadata>
  <g
     inkscape:label="Layer 1"
     inkscape:groupmode="layer"
     id="layer1">
    <path
       style="opacity:1;vector-effect:none;fill:#784421;fill-opacity:1;fill-rule:nonzero;stroke:none;stroke-width:1.10271215;stroke-linecap:butt;stroke-linejoin:miter;stroke-miterlimit:4;stroke-dasharray:none;stroke-dashoffset:0;stroke-opacity:1"
       id="path2664-0"
       sodipodi:type="arc"
       sodipodi:cx="-663.6571"
       sodipodi:cy="1737.069"
       sodipodi:rx="97.113731"
       sodipodi:ry="208.56236"
       sodipodi:start="4.1719652"
       sodipodi:end="4.1702897"
       sodipodi:open="true"
       d="m -713.62206,1558.2287 a 97.113731,208.56236 0 0 1 133.21814,71.4602 97.113731,208.56236 0 0 1 -33.21848,286.1304 97.113731,208.56236 0 0 1 -133.24598,-71.2205 97.113731,208.56236 0 0 1 33.10686,-286.1901"
       transform="matrix(-0.97989228,0.19952725,0.07460311,0.99721331,0,0)" />
    <path
       style="opacity:1;fill:#ff7474;fill-opacity:1;fill-rule:nonzero;stroke:none;stroke-width:0.76305723;stroke-miterlimit:4;stroke-dasharray:none;stroke-dashoffset:0;stroke-opacity:1"
       d="M 1724.5546,760.73616 A 755.71881,722.65445 0.371858 0 0 958.02841,48.140426 755.71881,722.65445 0.371858 0 0 213.27653,780.71842 755.71881,722.65445 0.371858 0 0 979.80276,1493.314 755.71881,722.65445 0.371858 0 0 1724.5546,760.73616 Z"
       id="path2587"
       inkscape:connector-curvature="0" />
    <path
       style="fill:#000000;stroke:#000000;stroke-width:1.99422133px;stroke-linecap:butt;stroke-linejoin:miter;stroke-opacity:1"
       d="m 490.14647,477.05284 c -6.1459,-5.89738 113.3778,-186.98437 112.6868,-173.17709 -18.4277,368.2032 192.9698,613.66124 215.2636,741.57465 7.7425,44.4235 72.6841,285.2122 62.6432,283.7965 -84.8094,-11.9574 -446.996,-559.38023 -404.5936,-837.19406"
       id="path2708"
       inkscape:connector-curvature="0"
       sodipodi:nodetypes="csssc" />
    <path
       style="opacity:1;vector-effect:none;fill:#180e07;fill-opacity:1;fill-rule:nonzero;stroke:none;stroke-width:0.00307963;stroke-linecap:butt;stroke-linejoin:miter;stroke-miterlimit:4;stroke-dasharray:none;stroke-dashoffset:0;stroke-opacity:1"
       d="m 435.84863,1376.9847 c 0.024,0.024 0.1668,0.1673 0.3169,0.3188 0.793,0.8001 1.8922,1.9022 2.7973,2.8046 0.7103,0.7082 1.3272,1.3209 2.229,2.2139 l 0.1721,0.1704 h 0.1191 0.1191 l -0.052,-0.051 c -0.028,-0.028 -0.122,-0.1204 -0.2082,-0.2051 -0.3094,-0.3044 -1.2165,-1.2009 -1.6757,-1.6562 -1.1419,-1.1323 -2.3584,-2.347 -3.4289,-3.4237 l -0.2135,-0.2147 h -0.1098 -0.1098 z"
       id="path2739"
       inkscape:connector-curvature="0" />
    <path
       style="opacity:1;vector-effect:none;fill:#180e07;fill-opacity:1;fill-rule:nonzero;stroke:none;stroke-width:0.00307963;stroke-linecap:butt;stroke-linejoin:miter;stroke-miterlimit:4;stroke-dasharray:none;stroke-dashoffset:0;stroke-opacity:1"
       d="m 435.80303,1376.9793 c 0.021,0.021 0.095,0.095 0.1645,0.1647 0.5062,0.5077 1.2913,1.2916 1.9213,1.9183 1.1464,1.1405 2.7196,2.6961 2.7231,2.6926 9e-4,-10e-4 -0.086,-0.089 -0.1939,-0.1957 -1.0657,-1.0539 -2.8913,-2.8791 -4.3061,-4.305 l -0.3106,-0.313 -0.018,3e-4 -0.018,2e-4 z"
       id="path2741"
       inkscape:connector-curvature="0" />
    <path
       style="opacity:1;vector-effect:none;fill:#180e07;fill-opacity:1;fill-rule:nonzero;stroke:none;stroke-width:0.01231851;stroke-linecap:butt;stroke-linejoin:miter;stroke-miterlimit:4;stroke-dasharray:none;stroke-dashoffset:0;stroke-opacity:1"
       d="m 1065.1415,1463.2615 c 0.1411,9.9955 0.1589,11.2567 0.1819,11.2563 0.021,-3e-4 0.01,-1.2614 -0.1359,-11.257 -0.1411,-9.9955 -0.1589,-11.2567 -0.1819,-11.2563 -0.021,3e-4 0,1.2614 0.1359,11.257 z"
       id="path2747"
       inkscape:connector-curvature="0" />
    <path
       style="opacity:1;vector-effect:none;fill:#784421;fill-opacity:1;fill-rule:nonzero;stroke:none;stroke-width:1.10271215;stroke-linecap:butt;stroke-linejoin:miter;stroke-miterlimit:4;stroke-dasharray:none;stroke-dashoffset:0;stroke-opacity:1"
       id="path2664-0-6"
       sodipodi:type="arc"
       sodipodi:cx="-1085.9619"
       sodipodi:cy="1811.1887"
       sodipodi:rx="97.113731"
       sodipodi:ry="208.56236"
       sodipodi:start="4.1719652"
       sodipodi:end="4.1702897"
       sodipodi:open="true"
       d="m -1135.9269,1632.3484 a 97.113731,208.56236 0 0 1 133.2182,71.4602 97.113731,208.56236 0 0 1 -33.2185,286.1305 97.113731,208.56236 0 0 1 -133.246,-71.2205 97.113731,208.56236 0 0 1 33.1069,-286.1901"
       transform="matrix(-0.97989228,0.19952725,0.07460311,0.99721331,0,0)" />
    <path
       style="opacity:1;fill:#0c0c0c;fill-opacity:1;fill-rule:nonzero;stroke:none;stroke-width:1.53057802;stroke-miterlimit:4;stroke-dasharray:none;stroke-dashoffset:0;stroke-opacity:1"
       id="path2597"
       sodipodi:type="arc"
       sodipodi:cx="977.81134"
       sodipodi:cy="-1408.3031"
       sodipodi:rx="442.87088"
       sodipodi:ry="402.32779"
       sodipodi:start="4.1719652"
       sodipodi:end="4.1702897"
       sodipodi:open="true"
       d="m 749.95453,-1753.2954 a 442.87088,402.32779 0 0 1 607.51897,137.8504 442.87088,402.32779 0 0 1 -151.4873,551.9607 442.87088,402.32779 0 0 1 -607.6459,-137.388 442.87088,402.32779 0 0 1 150.97826,-552.0758"
       transform="matrix(0.99986947,-0.0161569,-0.01232751,-0.99992401,0,0)" />
    <ellipse
       style="opacity:1;fill:#000000;fill-opacity:1;fill-rule:nonzero;stroke:none;stroke-width:1.01805949;stroke-miterlimit:4;stroke-dasharray:none;stroke-dashoffset:0;stroke-opacity:1"
       id="path2595"
       transform="matrix(0.87877728,0.47723211,0.46249777,-0.88662044,0,0)"
       inkscape:transform-center-x="48.015309"
       inkscape:transform-center-y="594.85186"
       cx="1223.7047"
       cy="-227.34943"
       rx="758.74768"
       ry="771.72565" />
    <path
       style="opacity:1;vector-effect:none;fill:#ff7474;fill-opacity:1;fill-rule:nonzero;stroke:none;stroke-width:0.58021212;stroke-linecap:butt;stroke-linejoin:miter;stroke-miterlimit:4;stroke-dasharray:none;stroke-dashoffset:0;stroke-opacity:1"
       id="path2625-8-8"
       sodipodi:type="arc"
       sodipodi:cx="1442.1906"
       sodipodi:cy="-1520.2786"
       sodipodi:rx="49.10714"
       sodipodi:ry="32.142857"
       sodipodi:start="4.1719652"
       sodipodi:end="4.1702897"
       sodipodi:open="true"
       d="m 1416.925,-1547.8408 a 49.10714,32.142857 0 0 1 67.3639,11.0132 49.10714,32.142857 0 0 1 -16.7975,44.0974 49.10714,32.142857 0 0 1 -67.378,-10.9763 49.10714,32.142857 0 0 1 16.741,-44.1065"
       transform="matrix(0.99990041,-0.01411296,-0.01411296,-0.99990041,0,0)" />
    <path
       style="opacity:1;vector-effect:none;fill:#ff7474;fill-opacity:1;fill-rule:nonzero;stroke:none;stroke-width:0.58021212;stroke-linecap:butt;stroke-linejoin:miter;stroke-miterlimit:4;stroke-dasharray:none;stroke-dashoffset:0;stroke-opacity:1"
       id="path2625-8"
       sodipodi:type="arc"
       sodipodi:cx="511.49469"
       sodipodi:cy="-1525.9188"
       sodipodi:rx="49.10714"
       sodipodi:ry="32.142857"
       sodipodi:start="4.1719652"
       sodipodi:end="4.1702897"
       sodipodi:open="true"
       d="m 486.22909,-1553.481 a 49.10714,32.142857 0 0 1 67.36393,11.0132 49.10714,32.142857 0 0 1 -16.79747,44.0973 49.10714,32.142857 0 0 1 -67.37799,-10.9762 49.10714,32.142857 0 0 1 16.74102,-44.1066"
       transform="matrix(0.99990041,-0.01411296,-0.01411296,-0.99990041,0,0)" />
    <path
       style="opacity:1;fill:#000000;fill-opacity:1;fill-rule:nonzero;stroke:none;stroke-width:1.00157475;stroke-miterlimit:4;stroke-dasharray:none;stroke-dashoffset:0;stroke-opacity:1"
       id="path2604-9"
       sodipodi:type="arc"
       sodipodi:cx="518.38379"
       sodipodi:cy="-1438.7513"
       sodipodi:rx="72.85714"
       sodipodi:ry="87.14286"
       sodipodi:start="4.1719652"
       sodipodi:end="4.1702897"
       sodipodi:open="true"
       d="m 480.89883,-1513.4755 a 72.85714,87.14286 0 0 1 99.94357,29.8579 72.85714,87.14286 0 0 1 -24.92133,119.5529 72.85714,87.14286 0 0 1 -99.96445,-29.7578 72.85714,87.14286 0 0 1 24.83759,-119.5778"
       transform="matrix(0.99990041,-0.01411296,-0.01411296,-0.99990041,0,0)" />
    <path
       style="opacity:1;fill:#000000;fill-opacity:1;fill-rule:nonzero;stroke:none;stroke-width:1.00157475;stroke-miterlimit:4;stroke-dasharray:none;stroke-dashoffset:0;stroke-opacity:1"
       id="path2604-9-9"
       sodipodi:type="arc"
       sodipodi:cx="1438.9055"
       sodipodi:cy="-1432.8671"
       sodipodi:rx="72.85714"
       sodipodi:ry="87.14286"
       sodipodi:start="4.1719652"
       sodipodi:end="4.1702897"
       sodipodi:open="true"
       d="m 1401.4206,-1507.5913 a 72.85714,87.14286 0 0 1 99.9435,29.858 72.85714,87.14286 0 0 1 -24.9213,119.5528 72.85714,87.14286 0 0 1 -99.9644,-29.7577 72.85714,87.14286 0 0 1 24.8375,-119.5778"
       transform="matrix(0.99990041,-0.01411296,-0.01411296,-0.99990041,0,0)" />
    <rect
       style="opacity:1;vector-effect:none;fill:#ffffff;fill-opacity:0;fill-rule:nonzero;stroke:#f7fcfd;stroke-width:4.6213398;stroke-linecap:butt;stroke-linejoin:miter;stroke-miterlimit:4;stroke-dasharray:none;stroke-dashoffset:0;stroke-opacity:0.01010102"
       id="rect851"
       width="1889.3893"
       height="1895.0461"
       x="8.485281"
       y="7.9832606"
       inkscape:export-xdpi="10.137218"
       inkscape:export-ydpi="10.137218" />
  </g>
</svg>
