<?xml version="1.0" encoding="UTF-8" standalone="no"?>
<!-- Created with Inkscape (http://www.inkscape.org/) -->

<svg
   xmlns:dc="http://purl.org/dc/elements/1.1/"
   xmlns:cc="http://creativecommons.org/ns#"
   xmlns:rdf="http://www.w3.org/1999/02/22-rdf-syntax-ns#"
   xmlns:svg="http://www.w3.org/2000/svg"
   xmlns="http://www.w3.org/2000/svg"
   xmlns:xlink="http://www.w3.org/1999/xlink"
   xmlns:sodipodi="http://sodipodi.sourceforge.net/DTD/sodipodi-0.dtd"
   xmlns:inkscape="http://www.inkscape.org/namespaces/inkscape"
   width="1920px"
   height="1920px"
   viewBox="0 0 1920 1920"
   version="1.1"
   id="SVGRoot"
   inkscape:version="0.92.4 (5da689c313, 2019-01-14)"
   sodipodi:docname="bomb0.svg"
   inkscape:export-filename="C:\Users\shoha\Desktop\Games\Bubbles\sprites\bomb\bomb4.png"
   inkscape:export-xdpi="10"
   inkscape:export-ydpi="10">
  <defs
     id="defs2031">
    <linearGradient
       inkscape:collect="always"
       id="linearGradient894">
      <stop
         style="stop-color:#000000;stop-opacity:1;"
         offset="0"
         id="stop890" />
      <stop
         style="stop-color:#000000;stop-opacity:0;"
         offset="1"
         id="stop892" />
    </linearGradient>
    <linearGradient
       inkscape:collect="always"
       id="linearGradient886">
      <stop
         style="stop-color:#000000;stop-opacity:1;"
         offset="0"
         id="stop882" />
      <stop
         style="stop-color:#000000;stop-opacity:0;"
         offset="1"
         id="stop884" />
    </linearGradient>
    <linearGradient
       inkscape:collect="always"
       xlink:href="#linearGradient886"
       id="linearGradient888"
       x1="1410.9019"
       y1="230.00305"
       x2="1543.1063"
       y2="230.00305"
       gradientUnits="userSpaceOnUse"
       gradientTransform="translate(-9.8994949,28.284271)" />
    <linearGradient
       inkscape:collect="always"
       xlink:href="#linearGradient894"
       id="linearGradient896"
       x1="1255.8725"
       y1="190.16568"
       x2="1420.4763"
       y2="190.16568"
       gradientUnits="userSpaceOnUse"
       gradientTransform="translate(-9.8994949,28.284271)" />
    <linearGradient
       inkscape:collect="always"
       xlink:href="#linearGradient878"
       id="linearGradient920"
       x1="1362.7362"
       y1="402.73822"
       x2="1854.2588"
       y2="271.05096"
       gradientUnits="userSpaceOnUse"
       gradientTransform="matrix(0.87061779,0,0,0.87061779,317.83097,-92.110359)" />
    <linearGradient
       inkscape:collect="always"
       id="linearGradient878">
      <stop
         style="stop-color:#318fac;stop-opacity:0.71717173"
         offset="0"
         id="stop874" />
      <stop
         style="stop-color:#7fc4da;stop-opacity:0.5808081"
         offset="1"
         id="stop876" />
    </linearGradient>
    <linearGradient
       inkscape:collect="always"
       xlink:href="#linearGradient926"
       id="linearGradient928"
       x1="153.68938"
       y1="1036"
       x2="1758.3105"
       y2="1036"
       gradientUnits="userSpaceOnUse"
       gradientTransform="matrix(0.87061779,0,0,0.87061779,79.041374,-60.860829)" />
    <linearGradient
       inkscape:collect="always"
       id="linearGradient926">
      <stop
         style="stop-color:#2c819d;stop-opacity:1"
         offset="0"
         id="stop922" />
      <stop
         style="stop-color:#3aa5c8;stop-opacity:0.530303"
         offset="1"
         id="stop924" />
    </linearGradient>
    <linearGradient
       inkscape:collect="always"
       xlink:href="#linearGradient878"
       id="linearGradient920-6"
       x1="1362.7362"
       y1="402.73822"
       x2="1854.2588"
       y2="271.05096"
       gradientUnits="userSpaceOnUse"
       gradientTransform="matrix(0.87061779,0,0,0.87061779,368.1153,195.70301)" />
    <linearGradient
       inkscape:collect="always"
       xlink:href="#linearGradient926"
       id="linearGradient928-5"
       x1="153.68938"
       y1="1036"
       x2="1758.3105"
       y2="1036"
       gradientUnits="userSpaceOnUse"
       gradientTransform="matrix(0.8707974,0,0,0.78231373,78.869651,101.3329)" />
    <linearGradient
       inkscape:collect="always"
       xlink:href="#linearGradient878"
       id="linearGradient920-6-3"
       x1="1362.7362"
       y1="402.73822"
       x2="1854.2588"
       y2="271.05096"
       gradientUnits="userSpaceOnUse"
       gradientTransform="matrix(0.87061779,0,0,0.87061779,396.39952,438.94764)" />
    <linearGradient
       inkscape:collect="always"
       xlink:href="#linearGradient926"
       id="linearGradient928-5-5"
       x1="153.68938"
       y1="1036"
       x2="1758.3105"
       y2="1036"
       gradientUnits="userSpaceOnUse"
       gradientTransform="matrix(0.87096024,0,0,0.70638054,78.713977,240.81081)" />
    <linearGradient
       inkscape:collect="always"
       xlink:href="#linearGradient878"
       id="linearGradient920-6-3-4"
       x1="1362.7362"
       y1="402.73822"
       x2="1854.2588"
       y2="271.05096"
       gradientUnits="userSpaceOnUse"
       gradientTransform="matrix(0.87061779,0,0,0.87061779,385.0858,212.67345)" />
    <linearGradient
       inkscape:collect="always"
       xlink:href="#linearGradient926"
       id="linearGradient928-5-5-8"
       x1="153.68938"
       y1="1036"
       x2="1758.3105"
       y2="1036"
       gradientUnits="userSpaceOnUse"
       gradientTransform="matrix(0.87080113,0,0,0.78054774,78.866065,104.5766)" />
    <linearGradient
       inkscape:collect="always"
       xlink:href="#linearGradient878"
       id="linearGradient920-6-3-4-9"
       x1="1362.7362"
       y1="402.73822"
       x2="1854.2588"
       y2="271.05096"
       gradientUnits="userSpaceOnUse"
       gradientTransform="matrix(0.87061779,0,0,0.87061779,327.31778,102.49891)" />
    <linearGradient
       inkscape:collect="always"
       xlink:href="#linearGradient926"
       id="linearGradient928-5-5-8-9"
       x1="153.68938"
       y1="1036"
       x2="1758.3105"
       y2="1036"
       gradientUnits="userSpaceOnUse"
       gradientTransform="matrix(0.87074253,0,0,0.8088039,78.922088,52.675784)" />
  </defs>
  <sodipodi:namedview
     id="base"
     pagecolor="#ffffff"
     bordercolor="#666666"
     borderopacity="1.0"
     inkscape:pageopacity="0.0"
     inkscape:pageshadow="2"
     inkscape:zoom="0.25"
     inkscape:cx="1161.888"
     inkscape:cy="1012.0564"
     inkscape:document-units="px"
     inkscape:current-layer="layer14"
     showgrid="false"
     inkscape:window-width="1680"
     inkscape:window-height="987"
     inkscape:window-x="-8"
     inkscape:window-y="-8"
     inkscape:window-maximized="1" />
  <metadata
     id="metadata2034">
    <rdf:RDF>
      <cc:Work
         rdf:about="">
        <dc:format>image/svg+xml</dc:format>
        <dc:type
           rdf:resource="http://purl.org/dc/dcmitype/StillImage" />
        <dc:title />
      </cc:Work>
    </rdf:RDF>
  </metadata>
  <g
     inkscape:label="Layer 1"
     inkscape:groupmode="layer"
     id="layer1"
     style="display:none"
     sodipodi:insensitive="true">
    <ellipse
       style="display:inline;opacity:1;vector-effect:none;fill:#000000;fill-opacity:0.34170855;fill-rule:nonzero;stroke:#ffffff;stroke-width:8.01828671;stroke-linecap:butt;stroke-linejoin:miter;stroke-miterlimit:4;stroke-dasharray:none;stroke-dashoffset:0;stroke-opacity:0"
       id="path1859"
       cx="930.638"
       cy="1735.6809"
       rx="468.14627"
       ry="177.90665" />
    <path
       style="display:inline;opacity:1;vector-effect:none;fill:url(#linearGradient920);fill-opacity:1;fill-rule:nonzero;stroke:url(#linearGradient920);stroke-width:10.81902885;stroke-linecap:butt;stroke-linejoin:miter;stroke-miterlimit:4;stroke-dasharray:none;stroke-dashoffset:0;stroke-opacity:0"
       d="m 1406.3964,352.94987 c -32.3316,-33.9798 -78.3307,-70.1609 -114.9891,-93.5019 -48.9377,-31.3726 -61.8075,-33.4026 -87.3088,-48.3487 l 62.5823,2.3636 c 53.5167,-4.1041 106.8365,-15.7371 150.9654,-44.1013 50.439,-32.4203 61.8306,-62.53405 107.4612,-136.039889 l 31.116,-27.0872698 c 24.2189,-5.98284995 39.0289,3.71588 49.3589,20.8809498 33.1073,77.549279 135.1816,75.403309 105.7319,130.673009 l -17.7474,33.3073 v 0 c 0,0 -45.5216,-0.2486 -76.4731,19.6376 -20.7673,13.3429 -47.4831,20.8544 -65.3112,39.1776 -28.198,28.9812 -45.9279,73.2433 -72.1628,120.9616 -8.6626,15.7567 -4.7227,60.3861 -4.8197,60.825 -4.085,6.9778 -14.4931,-22.0886 -68.4036,-78.7476 z"
       id="path872"
       inkscape:connector-curvature="0"
       sodipodi:nodetypes="scccccccscsssccs" />
    <circle
       style="display:inline;opacity:1;vector-effect:none;fill:url(#linearGradient928);fill-opacity:1;fill-rule:nonzero;stroke:#000000;stroke-width:5.52451563;stroke-linecap:butt;stroke-linejoin:miter;stroke-miterlimit:4;stroke-dasharray:none;stroke-dashoffset:0;stroke-opacity:0"
       id="path850"
       cx="911.35199"
       cy="841.09912"
       r="695.74365" />
  </g>
  <g
     inkscape:groupmode="layer"
     id="layer2"
     inkscape:label="Layer 2"
     style="display:none"
     sodipodi:insensitive="true">
    <ellipse
       style="display:inline;opacity:1;vector-effect:none;fill:#000000;fill-opacity:0.34170855;fill-rule:nonzero;stroke:#ffffff;stroke-width:8.01828671;stroke-linecap:butt;stroke-linejoin:miter;stroke-miterlimit:4;stroke-dasharray:none;stroke-dashoffset:0;stroke-opacity:0"
       id="path1859-2"
       cx="930.63806"
       cy="1735.6809"
       rx="468.14627"
       ry="177.90665" />
    <path
       style="display:inline;opacity:1;vector-effect:none;fill:url(#linearGradient920-6);fill-opacity:1;fill-rule:nonzero;stroke:url(#linearGradient920-6);stroke-width:10.81902885;stroke-linecap:butt;stroke-linejoin:miter;stroke-miterlimit:4;stroke-dasharray:none;stroke-dashoffset:0;stroke-opacity:0"
       d="m 1431.5386,496.85651 c -32.3316,-33.9798 -78.3307,-70.1609 -114.9891,-93.5019 -48.9377,-31.3726 -61.8075,-33.4026 -87.3088,-48.3487 l 62.5823,2.3636 c 53.5167,-4.1041 106.8365,-15.73705 150.9654,-44.10125 50.439,-32.4203 61.8306,-62.53405 107.4612,-136.03989 l 31.116,-27.08727 c 24.2189,-5.98285 39.0289,3.71588 49.3589,20.88095 33.1073,77.54928 135.1816,75.40331 105.7319,130.67301 l -17.7474,33.3073 v 0 c 0,0 -45.5216,-0.2486 -76.4731,19.63755 -20.7673,13.3429 -47.4831,20.8544 -65.3112,39.1776 -28.198,28.9812 -45.9279,73.2433 -72.1628,120.9616 -8.6626,15.7567 -4.7227,60.3861 -4.8197,60.825 -4.085,6.9778 -14.4931,-22.0886 -68.4036,-78.7476 z"
       id="path872-1"
       inkscape:connector-curvature="0"
       sodipodi:nodetypes="scccccccscsssccs" />
    <ellipse
       style="display:inline;opacity:1;vector-effect:none;fill:url(#linearGradient928-5);fill-opacity:1;fill-rule:nonzero;stroke:#000000;stroke-width:5.23739958;stroke-linecap:butt;stroke-linejoin:miter;stroke-miterlimit:4;stroke-dasharray:none;stroke-dashoffset:0;stroke-opacity:0"
       id="path850-8"
       cx="911.35205"
       cy="911.80988"
       rx="695.88721"
       ry="625.17651" />
  </g>
  <g
     inkscape:groupmode="layer"
     id="layer12"
     inkscape:label="Layer 3"
     style="display:none"
     sodipodi:insensitive="true">
    <ellipse
       style="display:inline;opacity:1;vector-effect:none;fill:#000000;fill-opacity:0.34170855;fill-rule:nonzero;stroke:#ffffff;stroke-width:8.01828671;stroke-linecap:butt;stroke-linejoin:miter;stroke-miterlimit:4;stroke-dasharray:none;stroke-dashoffset:0;stroke-opacity:0"
       id="path1859-2-8"
       cx="930.638"
       cy="1735.6809"
       rx="468.14627"
       ry="177.90665" />
    <path
       style="display:inline;opacity:1;vector-effect:none;fill:url(#linearGradient920-6-3);fill-opacity:1;fill-rule:nonzero;stroke:url(#linearGradient920-6-3);stroke-width:10.81902885;stroke-linecap:butt;stroke-linejoin:miter;stroke-miterlimit:4;stroke-dasharray:none;stroke-dashoffset:0;stroke-opacity:0"
       d="m 1445.6807,618.47887 c -32.3316,-33.9798 -78.3307,-70.1609 -114.9891,-93.5019 -48.9377,-31.3726 -61.8075,-33.4026 -87.3088,-48.3487 l 62.5823,2.3636 c 53.5167,-4.1041 106.8365,-15.7371 150.9654,-44.1013 50.439,-32.4203 61.8306,-62.53404 107.4612,-136.03989 l 31.116,-27.08727 c 24.2189,-5.98285 39.0289,3.71588 49.3589,20.88095 33.1073,77.54929 135.1816,75.40332 105.7319,130.67301 l -17.7474,33.3073 v 0 c 0,0 -45.5216,-0.2486 -76.4731,19.6376 -20.7673,13.3429 -47.4831,20.8544 -65.3112,39.1776 -28.198,28.9812 -45.9279,73.2433 -72.1628,120.9616 -8.6626,15.7567 -4.7227,60.3861 -4.8197,60.825 -4.085,6.9778 -14.4931,-22.0886 -68.4036,-78.7476 z"
       id="path872-1-4"
       inkscape:connector-curvature="0"
       sodipodi:nodetypes="scccccccscsssccs" />
    <ellipse
       style="display:inline;opacity:1;vector-effect:none;fill:url(#linearGradient928-5-5);fill-opacity:1;fill-rule:nonzero;stroke:#000000;stroke-width:4.97720098;stroke-linecap:butt;stroke-linejoin:miter;stroke-miterlimit:4;stroke-dasharray:none;stroke-dashoffset:0;stroke-opacity:0"
       id="path850-8-3"
       cx="911.35205"
       cy="972.62097"
       rx="696.01733"
       ry="564.49542" />
  </g>
  <g
     inkscape:groupmode="layer"
     id="layer13"
     inkscape:label="Layer 4"
     style="display:none"
     sodipodi:insensitive="true">
    <ellipse
       style="display:inline;opacity:1;vector-effect:none;fill:#000000;fill-opacity:0.34170855;fill-rule:nonzero;stroke:#ffffff;stroke-width:8.01828671;stroke-linecap:butt;stroke-linejoin:miter;stroke-miterlimit:4;stroke-dasharray:none;stroke-dashoffset:0;stroke-opacity:0"
       id="path1859-2-8-0"
       cx="930.63794"
       cy="1735.6809"
       rx="468.14627"
       ry="177.90665" />
    <path
       style="display:inline;opacity:1;vector-effect:none;fill:url(#linearGradient920-6-3-4);fill-opacity:1;fill-rule:nonzero;stroke:url(#linearGradient920-6-3-4);stroke-width:10.81902885;stroke-linecap:butt;stroke-linejoin:miter;stroke-miterlimit:4;stroke-dasharray:none;stroke-dashoffset:0;stroke-opacity:0"
       d="m 1440.0238,505.34178 c -32.3316,-33.9798 -78.3307,-70.1609 -114.9891,-93.5019 -48.9377,-31.3726 -61.8075,-33.4026 -87.3088,-48.3487 l 62.5823,2.3636 c 53.5167,-4.1041 106.8365,-15.7371 150.9654,-44.1013 50.439,-32.4203 61.8306,-62.53404 107.4612,-136.03989 l 31.116,-27.08727 c 24.2189,-5.98285 39.0289,3.71588 49.3589,20.88095 33.1073,77.54929 135.1816,75.40332 105.7319,130.67301 l -17.7474,33.3073 v 0 c 0,0 -45.5216,-0.2486 -76.4731,19.6376 -20.7673,13.3429 -47.4831,20.8544 -65.3112,39.1776 -28.198,28.9812 -45.9279,73.2433 -72.1628,120.9616 -8.6626,15.7567 -4.7227,60.3861 -4.8197,60.825 -4.085,6.9778 -14.4931,-22.0886 -68.4036,-78.7476 z"
       id="path872-1-4-3"
       inkscape:connector-curvature="0"
       sodipodi:nodetypes="scccccccscsssccs" />
    <ellipse
       style="display:inline;opacity:1;vector-effect:none;fill:url(#linearGradient928-5-5-8);fill-opacity:1;fill-rule:nonzero;stroke:#000000;stroke-width:5.23149586;stroke-linecap:butt;stroke-linejoin:miter;stroke-miterlimit:4;stroke-dasharray:none;stroke-dashoffset:0;stroke-opacity:0"
       id="path850-8-3-3"
       cx="911.35205"
       cy="913.224"
       rx="695.8902"
       ry="623.76526" />
  </g>
  <g
     inkscape:groupmode="layer"
     id="layer14"
     inkscape:label="Layer 5"
     style="display:inline">
    <ellipse
       style="display:inline;opacity:1;vector-effect:none;fill:#000000;fill-opacity:0.34170855;fill-rule:nonzero;stroke:#ffffff;stroke-width:8.01828671;stroke-linecap:butt;stroke-linejoin:miter;stroke-miterlimit:4;stroke-dasharray:none;stroke-dashoffset:0;stroke-opacity:0"
       id="path1859-2-8-0-2"
       cx="930.63788"
       cy="1735.6809"
       rx="468.14627"
       ry="177.90665" />
    <path
       style="display:inline;opacity:1;vector-effect:none;fill:url(#linearGradient920-6-3-4-9);fill-opacity:1;fill-rule:nonzero;stroke:url(#linearGradient920-6-3-4-9);stroke-width:10.81902885;stroke-linecap:butt;stroke-linejoin:miter;stroke-miterlimit:4;stroke-dasharray:none;stroke-dashoffset:0;stroke-opacity:0"
       d="m 1411.1397,450.25451 c -32.3316,-33.9798 -78.3307,-70.1609 -114.989,-93.5019 -48.9377,-31.3726 -61.8075,-33.4026 -87.3088,-48.3487 l 62.5823,2.3636 c 53.5167,-4.1041 106.8364,-15.7371 150.9653,-44.1013 50.4391,-32.4203 61.8307,-62.53404 107.4613,-136.03989 l 31.116,-27.08727 c 24.2189,-5.98285 39.0288,3.71588 49.3588,20.88095 33.1074,77.54929 135.1817,75.40332 105.732,130.67301 l -17.7475,33.3073 v 0 c 0,0 -45.5216,-0.2486 -76.473,19.6376 -20.7673,13.3429 -47.4831,20.8544 -65.3112,39.1776 -28.1981,28.9812 -45.928,73.2433 -72.1628,120.9616 -8.6627,15.7567 -4.7228,60.3861 -4.8197,60.825 -4.0851,6.9778 -14.4932,-22.0886 -68.4037,-78.7476 z"
       id="path872-1-4-3-0"
       inkscape:connector-curvature="0"
       sodipodi:nodetypes="scccccccscsssccs" />
    <ellipse
       style="display:inline;opacity:1;vector-effect:none;fill:url(#linearGradient928-5-5-8-9);fill-opacity:1;fill-rule:nonzero;stroke:#000000;stroke-width:5.32516623;stroke-linecap:butt;stroke-linejoin:miter;stroke-miterlimit:4;stroke-dasharray:none;stroke-dashoffset:0;stroke-opacity:0"
       id="path850-8-3-3-3"
       cx="911.35199"
       cy="890.59656"
       rx="695.84332"
       ry="646.34583" />
  </g>
</svg>
